<?xml version="1.0" encoding="utf-8"?>
<!-- Generator: Adobe Illustrator 24.1.0, SVG Export Plug-In . SVG Version: 6.00 Build 0)  -->
<svg version="1.1" id="Capa_1" xmlns="http://www.w3.org/2000/svg" xmlns:xlink="http://www.w3.org/1999/xlink" x="0px" y="0px"
	 viewBox="0 0 512 512" style="enable-background:new 0 0 512 512;" xml:space="preserve">
<style type="text/css">
	.st0{fill:#283747;}
</style>
<g>
	<g>
		<path class="st0" d="M153.6,89.9l10.6-10.6c6.9-6.9,5.5-18.5-2.9-23.5L80.9,7.6C59.8-5,33-1.7,15.7,15.7C-1.7,33-5,59.9,7.6,80.9
			l48.2,80.3c5,8.3,16.6,9.8,23.5,2.9l10.6-10.6l81.2,81l63.6-63.6L153.6,89.9z"/>
	</g>
</g>
<g>
	<g>
		<path class="st0" d="M501.8,59.7c-4.4-9.2-16.8-11.5-24.1-4.1l-38.8,38.8c-5.7,5.7-15.5,5.7-21.2,0c-5.8-5.8-5.8-15.4,0-21.2
			l38.8-38.8c7.3-7.3,5.2-19.7-4.1-24.1c-40.2-19.2-88.2-11-119.6,20.5c-28.8,28.8-38.2,71.7-24.7,109.5L140.3,308.1
			c-37.8-13.5-80.7-4.2-109.5,24.7c-31.4,31.4-39.7,79.5-20.5,119.5c4.5,9.4,16.9,11.4,24.1,4.1l38.8-38.8c5.9-5.8,15.4-5.8,21.2,0
			c5.8,5.8,5.9,15.3,0,21.2l-38.8,38.8c-7.3,7.3-5.2,19.7,4.1,24.1c14.4,6.9,29.8,10.2,45.1,10.2c27.3,0,54.2-10.6,74.4-30.7
			c28.9-28.8,38.2-71.7,24.7-109.5l167.8-167.8c37.8,13.5,80.7,4.2,109.5-24.7C512.7,147.8,520.9,99.8,501.8,59.7z"/>
	</g>
</g>
<g>
	<g>
		<path class="st0" d="M489.9,385.2c-50.9-50.7-78.8-70.9-138.5-117.3l-84.8,84.8c42,53.9,67.4,88.6,115,136.3
			c15.6,15.6,36.3,22.9,56.7,22.9c15,0,29.7-3.6,42.1-12.5c18.1-13,29.5-33.1,31.3-55.1C513.4,422.3,505.4,400.7,489.9,385.2z
			 M446.7,446.7c-6,5.4-15.3,4.9-21-0.8l-59.4-59.4c-5.7-5.7-6.2-15-0.8-21c5.8-6.4,15.7-6.5,21.7-0.5l60,60
			C453.2,431,453,440.9,446.7,446.7z"/>
	</g>
</g>
</svg>
