<?xml version="1.0" encoding="utf-8"?>
<!-- Generator: Adobe Illustrator 24.1.0, SVG Export Plug-In . SVG Version: 6.00 Build 0)  -->
<svg version="1.1" id="Layer_1" xmlns="http://www.w3.org/2000/svg" xmlns:xlink="http://www.w3.org/1999/xlink" x="0px" y="0px"
	 viewBox="0 0 512 512" style="enable-background:new 0 0 512 512;" xml:space="preserve">
<style type="text/css">
	.st0{fill:#283747;}
</style>
<g>
	<path class="st0" d="M488,312h-32c-13.2,0-24,10.8-24,24v96H80v-96c0-13.2-10.8-24-24-24H24c-13.2,0-24,10.8-24,24v136
		c0,22.1,17.9,40,40,40h432c22.1,0,40-17.9,40-40V336C512,322.8,501.2,312,488,312z"/>
	<path class="st0" d="M151,186.3c9.4,9.4,24.6,9.4,33.9,0l23-23V376c0,13.2,10.8,24,24,24h48c13.2,0,24-10.8,24-24V163.3l23,23
		c9.4,9.4,24.6,9.4,33.9,0l25.4-25.4c9.4-9.4,9.4-24.6,0-33.9L261.7,2.3c-3.1-3.1-8.2-3.1-11.3,0L125.7,127
		c-9.4,9.4-9.4,24.6,0,33.9L151,186.3z"/>
</g>
</svg>
