<?xml version="1.0" encoding="utf-8"?>
<!-- Generator: Adobe Illustrator 24.1.0, SVG Export Plug-In . SVG Version: 6.00 Build 0)  -->
<svg version="1.1" id="Layer_1" xmlns="http://www.w3.org/2000/svg" xmlns:xlink="http://www.w3.org/1999/xlink" x="0px" y="0px"
	 viewBox="0 0 512 512" style="enable-background:new 0 0 512 512;" xml:space="preserve">
<style type="text/css">
	.st0{fill:#283747;}
</style>
<path class="st0" d="M314.7,146.3l-63.6,110.2l63.6,110.2h127.2l63.6-110.2l-63.6-110.2H314.7z M345.9,183.6L297.1,268
	c-2.3,4-7.5,5.4-11.6,3.1s-5.4-7.5-3.1-11.6l0,0l48.8-84.4c2.3-4,7.5-5.4,11.6-3.1C346.8,174.5,348.2,179.6,345.9,183.6z"/>
<path class="st0" d="M197.3,221l63.6-110.2L197.3,0.5H70.1L6.5,110.7L70.1,221H197.3z M45.3,126.2c-4.7,0-8.4-3.7-8.4-8.4
	c0-1.4,0.4-2.9,1.1-4.2l48.8-84.4c2.3-4,7.5-5.4,11.6-3.1c4,2.3,5.4,7.5,3.1,11.6l-48.8,84.4C51.1,124.5,48.3,126.2,45.3,126.2z"/>
<path class="st0" d="M197.3,512.5l63.6-110.2L197.3,292H70.1L6.5,402.3l63.6,110.2H197.3z M45.3,418.3c-4.7,0-8.4-3.7-8.4-8.4
	c0-1.4,0.4-2.9,1.1-4.2l48.8-84.4c2.3-4,7.5-5.4,11.6-3.1s5.4,7.5,3.1,11.6l-48.8,84.4C51.1,416.7,48.3,418.3,45.3,418.3z"/>
</svg>
