<?xml version="1.0" encoding="utf-8"?>
<!-- Generator: Adobe Illustrator 24.1.0, SVG Export Plug-In . SVG Version: 6.00 Build 0)  -->
<svg version="1.1" id="Capa_1" xmlns="http://www.w3.org/2000/svg" xmlns:xlink="http://www.w3.org/1999/xlink" x="0px" y="0px"
	 viewBox="0 0 363.7 363.7" style="enable-background:new 0 0 363.7 363.7;" xml:space="preserve">
<style type="text/css">
	.st0{fill:#283747;}
</style>
<g>
	<path class="st0" d="M236.2,222.3c0.9-3.2,0.4-6.6-1.3-9.5l-26.1-45.2c-2.2-3.9-6.4-6.3-10.9-6.3c-2.2,0-4.3,0.6-6.2,1.7l-13.6,7.9
		c-5.5-4.1-11.5-7.5-17.8-10.3v-15.7c0-6.9-5.6-12.5-12.5-12.5H95.7c-6.9,0-12.5,5.6-12.5,12.5v15.7c-6.3,2.8-12.3,6.3-17.8,10.3
		L51.7,163c-1.9-1.1-4.1-1.7-6.2-1.7c-4.5,0-8.6,2.4-10.9,6.3L8.5,212.8c-1.7,2.9-2.1,6.3-1.3,9.5c0.9,3.2,2.9,5.9,5.8,7.6l13.6,7.8
		c-0.4,3.4-0.6,6.8-0.6,10.3s0.2,6.9,0.6,10.3L13,266.1c-2.9,1.7-5,4.4-5.8,7.6c-0.9,3.2-0.4,6.6,1.3,9.5l26.1,45.2
		c2.2,3.9,6.4,6.3,10.9,6.3c2.2,0,4.3-0.6,6.2-1.7l13.6-7.8c5.5,4.1,11.5,7.5,17.8,10.3v15.7c0,3.3,1.3,6.5,3.7,8.9
		c2.4,2.4,5.5,3.7,8.9,3.7h52.2c6.9,0,12.5-5.6,12.5-12.5v-15.7c6.3-2.8,12.3-6.3,17.8-10.3l13.6,7.8c1.9,1.1,4.1,1.7,6.2,1.7
		c4.5,0,8.6-2.4,10.9-6.3l26.1-45.2c1.7-2.9,2.1-6.3,1.3-9.5c-0.9-3.2-2.9-5.9-5.8-7.6l-13.6-7.8c0.4-3.4,0.6-6.8,0.6-10.3
		s-0.2-6.9-0.6-10.3l13.6-7.8C233.3,228.2,235.4,225.5,236.2,222.3z M121.8,302.4c-30,0-54.4-24.4-54.4-54.4s24.4-54.4,54.4-54.4
		s54.4,24.4,54.4,54.4C176.2,278.1,151.8,302.4,121.8,302.4z"/>
	<path class="st0" d="M167.5,93.6c-0.6,2.1-0.3,4.4,0.8,6.3l17.3,29.9c1.5,2.6,4.2,4.1,7.2,4.1c1.4,0,2.9-0.4,4.1-1.1l9-5.2
		c3.7,2.7,7.6,5,11.8,6.8v10.4c0,2.2,0.9,4.3,2.4,5.9c1.6,1.6,3.6,2.4,5.9,2.4h34.5c4.6,0,8.3-3.7,8.3-8.3v-10.4
		c4.2-1.9,8.1-4.1,11.8-6.8l9,5.2c1.3,0.7,2.7,1.1,4.1,1.1c3,0,5.7-1.6,7.2-4.1l17.3-29.9c1.1-1.9,1.4-4.2,0.8-6.3
		c-0.6-2.1-1.9-3.9-3.9-5l-9-5.2c0.2-2.2,0.4-4.5,0.4-6.8s-0.1-4.6-0.4-6.8l9-5.2c1.9-1.1,3.3-2.9,3.9-5s0.3-4.4-0.8-6.3l-17.3-29.9
		c-1.5-2.6-4.2-4.1-7.2-4.1c-1.4,0-2.9,0.4-4.1,1.1l-9,5.2c-3.7-2.7-7.6-5-11.8-6.8V8.3c0-4.6-3.7-8.3-8.3-8.3H226
		c-4.6,0-8.3,3.7-8.3,8.3v10.4c-4.2,1.9-8.1,4.1-11.8,6.8l-9-5.2c-1.3-0.7-2.7-1.1-4.1-1.1c-3,0-5.7,1.6-7.2,4.1l-17.3,29.9
		c-1.1,1.9-1.4,4.2-0.8,6.3c0.6,2.1,1.9,3.9,3.9,5l9,5.2c-0.2,2.2-0.4,4.5-0.4,6.8s0.1,4.6,0.4,6.8l-9,5.2
		C169.5,89.7,168.1,91.5,167.5,93.6z M243.3,40.6c19.9,0,36,16.1,36,36s-16.1,36-36,36s-36-16.1-36-36S223.4,40.6,243.3,40.6z"/>
	<path class="st0" d="M354,209.5l-6.2-3.6c0.2-1.5,0.3-3.1,0.3-4.7c0-1.6-0.1-3.2-0.3-4.7l6.2-3.6c1.3-0.8,2.3-2,2.7-3.5
		c0.4-1.5,0.2-3-0.6-4.3l-11.9-20.6c-1-1.8-2.9-2.9-4.9-2.9c-1,0-2,0.3-2.8,0.8l-6.2,3.6c-2.5-1.8-5.2-3.4-8.1-4.7v-7.1
		c0-3.1-2.6-5.7-5.7-5.7h-23.8c-3.1,0-5.7,2.6-5.7,5.7v7.1c-2.9,1.3-5.6,2.9-8.1,4.7l-6.2-3.6c-0.9-0.5-1.9-0.8-2.8-0.8
		c-2,0-3.9,1.1-4.9,2.9l-11.9,20.6c-0.8,1.3-1,2.9-0.6,4.3c0.4,1.5,1.3,2.7,2.7,3.5l6.2,3.6c-0.2,1.5-0.3,3.1-0.3,4.7
		s0.1,3.2,0.3,4.7l-6.2,3.6c-1.3,0.8-2.3,2-2.7,3.5s-0.2,3,0.6,4.3l11.9,20.6c1,1.8,2.9,2.9,4.9,2.9c1,0,2-0.3,2.8-0.8l6.2-3.6
		c2.5,1.8,5.2,3.4,8.1,4.7v7.1c0,1.5,0.6,3,1.7,4c1.1,1.1,2.5,1.7,4,1.7h23.8c3.1,0,5.7-2.6,5.7-5.7v-7.1c2.9-1.3,5.6-2.9,8.1-4.7
		l6.2,3.6c0.9,0.5,1.9,0.8,2.8,0.8c2,0,3.9-1.1,4.9-2.9l11.9-20.6c0.8-1.3,1-2.9,0.6-4.3C356.3,211.5,355.3,210.2,354,209.5z
		 M304.5,226c-13.7,0-24.8-11.1-24.8-24.8s11.1-24.8,24.8-24.8c13.7,0,24.8,11.1,24.8,24.8S318.2,226,304.5,226z"/>
</g>
</svg>
