<?xml version="1.0" encoding="utf-8"?>
<!-- Generator: Adobe Illustrator 24.1.0, SVG Export Plug-In . SVG Version: 6.00 Build 0)  -->
<svg version="1.1" id="Capa_1" xmlns="http://www.w3.org/2000/svg" xmlns:xlink="http://www.w3.org/1999/xlink" x="0px" y="0px"
	 viewBox="0 0 480 480" style="enable-background:new 0 0 480 480;" xml:space="preserve">
<style type="text/css">
	.st0{fill:#283747;}
</style>
<g>
	<g>
		<path class="st0" d="M378.5,214.7l-21.1-24c-5.8-6.6-15.9-7.3-22.6-1.5L272,244.3V16c0-8.8-7.2-16-16-16h-32c-8.8,0-16,7.2-16,16
			v228.3l-62.9-55.1c-6.6-5.8-16.7-5.2-22.6,1.5l-21.1,24c-5.9,6.7-5.2,16.8,1.5,22.6L229.5,348c6,5.3,15,5.3,21.1,0l126.5-110.8
			C383.7,231.5,384.4,221.3,378.5,214.7z"/>
	</g>
</g>
<g>
	<g>
		<path class="st0" d="M416,416H64c-8.8,0-16,7.2-16,16v32c0,8.8,7.2,16,16,16h352c8.8,0,16-7.2,16-16v-32
			C432,423.2,424.8,416,416,416z"/>
	</g>
</g>
</svg>
