<?xml version="1.0" encoding="utf-8"?>
<!-- Generator: Adobe Illustrator 24.1.0, SVG Export Plug-In . SVG Version: 6.00 Build 0)  -->
<svg version="1.1" id="Capa_1" xmlns="http://www.w3.org/2000/svg" xmlns:xlink="http://www.w3.org/1999/xlink" x="0px" y="0px"
	 viewBox="0 0 512 512" style="enable-background:new 0 0 512 512;" xml:space="preserve">
<style type="text/css">
	.st0{fill:#283747;}
</style>
<g>
	<path class="st0" d="M91.2,369.2V0H66.6C30.3,0,0.9,29.5,0.9,65.7v324.4c15.1-13,34.6-20.9,56-20.9L91.2,369.2L91.2,369.2z"/>
	<g>
		<path class="st0" d="M398,254.9c3.2,0,6.4,0.1,9.6,0.3V0H121.1v369.2h136.7C271.2,304.1,329,254.9,398,254.9z M212,88.2h100.2
			v29.9H212V88.2z M178.1,153.2H346v29.9H178.1V153.2z"/>
		<path class="st0" d="M274.5,470.1H76.8v-29.9h184.5c-4.1-13.3-6.3-27.3-6.3-41.9H56.9C25.5,398.2,0,423.8,0,455.1
			C0,486.5,25.5,512,56.9,512h254.9C296.7,500.6,284.1,486.4,274.5,470.1L274.5,470.1z"/>
	</g>
</g>
<g>
	<path class="st0" d="M398,284c-62.9,0-114,51.2-114,114s51.2,114,114,114c62.9,0,114-51.2,114-114C512,335.1,460.8,284,398,284z
		 M398,329.7c8.4,0,14.6,6.9,15,15s-7.2,15-15,15c-8.4,0-14.6-6.9-15-15S390.1,329.7,398,329.7z M413,456.4h-30v-76.8h30V456.4z"/>
</g>
</svg>
